<?xml version="1.0" encoding="utf-8" standalone="no"?>
<!DOCTYPE svg PUBLIC "-//W3C//DTD SVG 1.1//EN"
  "http://www.w3.org/Graphics/SVG/1.1/DTD/svg11.dtd">
<!-- Created with matplotlib (http://matplotlib.org/) -->
<svg height="360pt" version="1.1" viewBox="0 0 864 360" width="864pt" xmlns="http://www.w3.org/2000/svg" xmlns:xlink="http://www.w3.org/1999/xlink">
 <defs>
  <style type="text/css">
*{stroke-linecap:butt;stroke-linejoin:round;stroke-miterlimit:100000;}
  </style>
 </defs>
 <g id="figure_1">
  <g id="patch_1">
   <path d="M 0 360 
L 864 360 
L 864 0 
L 0 0 
z
" style="fill:#ffffff;"/>
  </g>
  <g id="axes_1">
   <g id="patch_2">
    <path clip-path="url(#p1d6fbd1bad)" d="M 82.575 24.8 
L 332.645364 24.8 
L 332.645364 43.22 
L 82.575 43.22 
z
" style="fill:url(#hfec4d93242);stroke:#000000;stroke-linejoin:miter;"/>
   </g>
   <g id="patch_3">
    <path clip-path="url(#p1d6fbd1bad)" d="M 82.575 55.5 
L 332.645364 55.5 
L 332.645364 73.92 
L 82.575 73.92 
z
" style="fill:url(#h18e4e7b162);stroke:#000000;stroke-linejoin:miter;"/>
   </g>
   <g id="patch_4">
    <path clip-path="url(#p1d6fbd1bad)" d="M 82.575 86.2 
L 332.645364 86.2 
L 332.645364 104.62 
L 82.575 104.62 
z
" style="fill:url(#h18e4e7b162);stroke:#000000;stroke-linejoin:miter;"/>
   </g>
   <g id="patch_5">
    <path clip-path="url(#p1d6fbd1bad)" d="M 337.748841 24.8 
L 587.819205 24.8 
L 587.819205 43.22 
L 337.748841 43.22 
z
" style="fill:url(#h18e4e7b162);stroke:#000000;stroke-linejoin:miter;"/>
   </g>
   <g id="patch_6">
    <path clip-path="url(#p1d6fbd1bad)" d="M 337.748841 55.5 
L 587.819205 55.5 
L 587.819205 73.92 
L 337.748841 73.92 
z
" style="fill:url(#hfec4d93242);stroke:#000000;stroke-linejoin:miter;"/>
   </g>
   <g id="patch_7">
    <path clip-path="url(#p1d6fbd1bad)" d="M 337.748841 86.2 
L 587.819205 86.2 
L 587.819205 104.62 
L 337.748841 104.62 
z
" style="fill:url(#h18e4e7b162);stroke:#000000;stroke-linejoin:miter;"/>
   </g>
   <g id="patch_8">
    <path clip-path="url(#p1d6fbd1bad)" d="M 592.922682 24.8 
L 842.993046 24.8 
L 842.993046 43.22 
L 592.922682 43.22 
z
" style="fill:url(#h18e4e7b162);stroke:#000000;stroke-linejoin:miter;"/>
   </g>
   <g id="patch_9">
    <path clip-path="url(#p1d6fbd1bad)" d="M 592.922682 55.5 
L 842.993046 55.5 
L 842.993046 73.92 
L 592.922682 73.92 
z
" style="fill:url(#h18e4e7b162);stroke:#000000;stroke-linejoin:miter;"/>
   </g>
   <g id="patch_10">
    <path clip-path="url(#p1d6fbd1bad)" d="M 592.922682 86.2 
L 842.993046 86.2 
L 842.993046 104.62 
L 592.922682 104.62 
z
" style="fill:url(#hfec4d93242);stroke:#000000;stroke-linejoin:miter;"/>
   </g>
   <g id="patch_11">
    <path clip-path="url(#p1d6fbd1bad)" d="M 82.575 116.9 
L 332.645364 116.9 
L 332.645364 135.32 
L 82.575 135.32 
z
" style="fill:#ffffff;stroke:#000000;stroke-linejoin:miter;"/>
   </g>
   <g id="patch_12">
    <path clip-path="url(#p1d6fbd1bad)" d="M 337.748841 116.9 
L 587.819205 116.9 
L 587.819205 135.32 
L 337.748841 135.32 
z
" style="fill:#ffffff;stroke:#000000;stroke-linejoin:miter;"/>
   </g>
   <g id="patch_13">
    <path clip-path="url(#p1d6fbd1bad)" d="M 592.922682 116.9 
L 842.993046 116.9 
L 842.993046 135.32 
L 592.922682 135.32 
z
" style="fill:#ffffff;stroke:#000000;stroke-linejoin:miter;"/>
   </g>
   <g id="matplotlib.axis_1">
    <g id="xtick_1">
     <g id="line2d_1">
      <defs>
       <path d="M 0 0 
L 0 -4 
" id="m9a811f569b" style="stroke:#000000;stroke-width:0.5;"/>
      </defs>
      <g>
       <use style="stroke:#000000;stroke-width:0.5;" x="210.16192053" xlink:href="#m9a811f569b" y="147.6"/>
      </g>
     </g>
     <g id="line2d_2">
      <defs>
       <path d="M 0 0 
L 0 4 
" id="mfb9d59e1f1" style="stroke:#000000;stroke-width:0.5;"/>
      </defs>
      <g>
       <use style="stroke:#000000;stroke-width:0.5;" x="210.16192053" xlink:href="#mfb9d59e1f1" y="24.8"/>
      </g>
     </g>
     <g id="text_1">
      <!-- Fold 1 -->
      <defs>
       <path d="M 45.40625 46.390625 
L 45.40625 75.984375 
L 54.390625 75.984375 
L 54.390625 0 
L 45.40625 0 
L 45.40625 8.203125 
Q 42.578125 3.328125 38.25 0.953125 
Q 33.9375 -1.421875 27.875 -1.421875 
Q 17.96875 -1.421875 11.734375 6.484375 
Q 5.515625 14.40625 5.515625 27.296875 
Q 5.515625 40.1875 11.734375 48.09375 
Q 17.96875 56 27.875 56 
Q 33.9375 56 38.25 53.625 
Q 42.578125 51.265625 45.40625 46.390625 
M 14.796875 27.296875 
Q 14.796875 17.390625 18.875 11.75 
Q 22.953125 6.109375 30.078125 6.109375 
Q 37.203125 6.109375 41.296875 11.75 
Q 45.40625 17.390625 45.40625 27.296875 
Q 45.40625 37.203125 41.296875 42.84375 
Q 37.203125 48.484375 30.078125 48.484375 
Q 22.953125 48.484375 18.875 42.84375 
Q 14.796875 37.203125 14.796875 27.296875 
" id="BitstreamVeraSans-Roman-64"/>
       <path d="M 9.8125 72.90625 
L 51.703125 72.90625 
L 51.703125 64.59375 
L 19.671875 64.59375 
L 19.671875 43.109375 
L 48.578125 43.109375 
L 48.578125 34.8125 
L 19.671875 34.8125 
L 19.671875 0 
L 9.8125 0 
z
" id="BitstreamVeraSans-Roman-46"/>
       <path id="BitstreamVeraSans-Roman-20"/>
       <path d="M 12.40625 8.296875 
L 28.515625 8.296875 
L 28.515625 63.921875 
L 10.984375 60.40625 
L 10.984375 69.390625 
L 28.421875 72.90625 
L 38.28125 72.90625 
L 38.28125 8.296875 
L 54.390625 8.296875 
L 54.390625 0 
L 12.40625 0 
z
" id="BitstreamVeraSans-Roman-31"/>
       <path d="M 30.609375 48.390625 
Q 23.390625 48.390625 19.1875 42.75 
Q 14.984375 37.109375 14.984375 27.296875 
Q 14.984375 17.484375 19.15625 11.84375 
Q 23.34375 6.203125 30.609375 6.203125 
Q 37.796875 6.203125 41.984375 11.859375 
Q 46.1875 17.53125 46.1875 27.296875 
Q 46.1875 37.015625 41.984375 42.703125 
Q 37.796875 48.390625 30.609375 48.390625 
M 30.609375 56 
Q 42.328125 56 49.015625 48.375 
Q 55.71875 40.765625 55.71875 27.296875 
Q 55.71875 13.875 49.015625 6.21875 
Q 42.328125 -1.421875 30.609375 -1.421875 
Q 18.84375 -1.421875 12.171875 6.21875 
Q 5.515625 13.875 5.515625 27.296875 
Q 5.515625 40.765625 12.171875 48.375 
Q 18.84375 56 30.609375 56 
" id="BitstreamVeraSans-Roman-6f"/>
       <path d="M 9.421875 75.984375 
L 18.40625 75.984375 
L 18.40625 0 
L 9.421875 0 
z
" id="BitstreamVeraSans-Roman-6c"/>
      </defs>
      <g transform="translate(194.89551428 159.1984375)scale(0.1 -0.1)">
       <use xlink:href="#BitstreamVeraSans-Roman-46"/>
       <use x="57.47265625" xlink:href="#BitstreamVeraSans-Roman-6f"/>
       <use x="118.654296875" xlink:href="#BitstreamVeraSans-Roman-6c"/>
       <use x="146.4375" xlink:href="#BitstreamVeraSans-Roman-64"/>
       <use x="209.9140625" xlink:href="#BitstreamVeraSans-Roman-20"/>
       <use x="241.701171875" xlink:href="#BitstreamVeraSans-Roman-31"/>
      </g>
     </g>
    </g>
    <g id="xtick_2">
     <g id="line2d_3">
      <g>
       <use style="stroke:#000000;stroke-width:0.5;" x="465.335761589" xlink:href="#m9a811f569b" y="147.6"/>
      </g>
     </g>
     <g id="line2d_4">
      <g>
       <use style="stroke:#000000;stroke-width:0.5;" x="465.335761589" xlink:href="#mfb9d59e1f1" y="24.8"/>
      </g>
     </g>
     <g id="text_2">
      <!-- Fold 2 -->
      <defs>
       <path d="M 19.1875 8.296875 
L 53.609375 8.296875 
L 53.609375 0 
L 7.328125 0 
L 7.328125 8.296875 
Q 12.9375 14.109375 22.625 23.890625 
Q 32.328125 33.6875 34.8125 36.53125 
Q 39.546875 41.84375 41.421875 45.53125 
Q 43.3125 49.21875 43.3125 52.78125 
Q 43.3125 58.59375 39.234375 62.25 
Q 35.15625 65.921875 28.609375 65.921875 
Q 23.96875 65.921875 18.8125 64.3125 
Q 13.671875 62.703125 7.8125 59.421875 
L 7.8125 69.390625 
Q 13.765625 71.78125 18.9375 73 
Q 24.125 74.21875 28.421875 74.21875 
Q 39.75 74.21875 46.484375 68.546875 
Q 53.21875 62.890625 53.21875 53.421875 
Q 53.21875 48.921875 51.53125 44.890625 
Q 49.859375 40.875 45.40625 35.40625 
Q 44.1875 33.984375 37.640625 27.21875 
Q 31.109375 20.453125 19.1875 8.296875 
" id="BitstreamVeraSans-Roman-32"/>
      </defs>
      <g transform="translate(450.069355339 159.1984375)scale(0.1 -0.1)">
       <use xlink:href="#BitstreamVeraSans-Roman-46"/>
       <use x="57.47265625" xlink:href="#BitstreamVeraSans-Roman-6f"/>
       <use x="118.654296875" xlink:href="#BitstreamVeraSans-Roman-6c"/>
       <use x="146.4375" xlink:href="#BitstreamVeraSans-Roman-64"/>
       <use x="209.9140625" xlink:href="#BitstreamVeraSans-Roman-20"/>
       <use x="241.701171875" xlink:href="#BitstreamVeraSans-Roman-32"/>
      </g>
     </g>
    </g>
    <g id="xtick_3">
     <g id="line2d_5">
      <g>
       <use style="stroke:#000000;stroke-width:0.5;" x="720.509602649" xlink:href="#m9a811f569b" y="147.6"/>
      </g>
     </g>
     <g id="line2d_6">
      <g>
       <use style="stroke:#000000;stroke-width:0.5;" x="720.509602649" xlink:href="#mfb9d59e1f1" y="24.8"/>
      </g>
     </g>
     <g id="text_3">
      <!-- Fold 3 -->
      <defs>
       <path d="M 40.578125 39.3125 
Q 47.65625 37.796875 51.625 33 
Q 55.609375 28.21875 55.609375 21.1875 
Q 55.609375 10.40625 48.1875 4.484375 
Q 40.765625 -1.421875 27.09375 -1.421875 
Q 22.515625 -1.421875 17.65625 -0.515625 
Q 12.796875 0.390625 7.625 2.203125 
L 7.625 11.71875 
Q 11.71875 9.328125 16.59375 8.109375 
Q 21.484375 6.890625 26.8125 6.890625 
Q 36.078125 6.890625 40.9375 10.546875 
Q 45.796875 14.203125 45.796875 21.1875 
Q 45.796875 27.640625 41.28125 31.265625 
Q 36.765625 34.90625 28.71875 34.90625 
L 20.21875 34.90625 
L 20.21875 43.015625 
L 29.109375 43.015625 
Q 36.375 43.015625 40.234375 45.921875 
Q 44.09375 48.828125 44.09375 54.296875 
Q 44.09375 59.90625 40.109375 62.90625 
Q 36.140625 65.921875 28.71875 65.921875 
Q 24.65625 65.921875 20.015625 65.03125 
Q 15.375 64.15625 9.8125 62.3125 
L 9.8125 71.09375 
Q 15.4375 72.65625 20.34375 73.4375 
Q 25.25 74.21875 29.59375 74.21875 
Q 40.828125 74.21875 47.359375 69.109375 
Q 53.90625 64.015625 53.90625 55.328125 
Q 53.90625 49.265625 50.4375 45.09375 
Q 46.96875 40.921875 40.578125 39.3125 
" id="BitstreamVeraSans-Roman-33"/>
      </defs>
      <g transform="translate(705.243196399 159.1984375)scale(0.1 -0.1)">
       <use xlink:href="#BitstreamVeraSans-Roman-46"/>
       <use x="57.47265625" xlink:href="#BitstreamVeraSans-Roman-6f"/>
       <use x="118.654296875" xlink:href="#BitstreamVeraSans-Roman-6c"/>
       <use x="146.4375" xlink:href="#BitstreamVeraSans-Roman-64"/>
       <use x="209.9140625" xlink:href="#BitstreamVeraSans-Roman-20"/>
       <use x="241.701171875" xlink:href="#BitstreamVeraSans-Roman-33"/>
      </g>
     </g>
    </g>
    <g id="text_4">
     <!-- Data points -->
     <defs>
      <path d="M 44.28125 53.078125 
L 44.28125 44.578125 
Q 40.484375 46.53125 36.375 47.5 
Q 32.28125 48.484375 27.875 48.484375 
Q 21.1875 48.484375 17.84375 46.4375 
Q 14.5 44.390625 14.5 40.28125 
Q 14.5 37.15625 16.890625 35.375 
Q 19.28125 33.59375 26.515625 31.984375 
L 29.59375 31.296875 
Q 39.15625 29.25 43.1875 25.515625 
Q 47.21875 21.78125 47.21875 15.09375 
Q 47.21875 7.46875 41.1875 3.015625 
Q 35.15625 -1.421875 24.609375 -1.421875 
Q 20.21875 -1.421875 15.453125 -0.5625 
Q 10.6875 0.296875 5.421875 2 
L 5.421875 11.28125 
Q 10.40625 8.6875 15.234375 7.390625 
Q 20.0625 6.109375 24.8125 6.109375 
Q 31.15625 6.109375 34.5625 8.28125 
Q 37.984375 10.453125 37.984375 14.40625 
Q 37.984375 18.0625 35.515625 20.015625 
Q 33.0625 21.96875 24.703125 23.78125 
L 21.578125 24.515625 
Q 13.234375 26.265625 9.515625 29.90625 
Q 5.8125 33.546875 5.8125 39.890625 
Q 5.8125 47.609375 11.28125 51.796875 
Q 16.75 56 26.8125 56 
Q 31.78125 56 36.171875 55.265625 
Q 40.578125 54.546875 44.28125 53.078125 
" id="BitstreamVeraSans-Roman-73"/>
      <path d="M 18.3125 70.21875 
L 18.3125 54.6875 
L 36.8125 54.6875 
L 36.8125 47.703125 
L 18.3125 47.703125 
L 18.3125 18.015625 
Q 18.3125 11.328125 20.140625 9.421875 
Q 21.96875 7.515625 27.59375 7.515625 
L 36.8125 7.515625 
L 36.8125 0 
L 27.59375 0 
Q 17.1875 0 13.234375 3.875 
Q 9.28125 7.765625 9.28125 18.015625 
L 9.28125 47.703125 
L 2.6875 47.703125 
L 2.6875 54.6875 
L 9.28125 54.6875 
L 9.28125 70.21875 
z
" id="BitstreamVeraSans-Roman-74"/>
      <path d="M 19.671875 64.796875 
L 19.671875 8.109375 
L 31.59375 8.109375 
Q 46.6875 8.109375 53.6875 14.9375 
Q 60.6875 21.78125 60.6875 36.53125 
Q 60.6875 51.171875 53.6875 57.984375 
Q 46.6875 64.796875 31.59375 64.796875 
z
M 9.8125 72.90625 
L 30.078125 72.90625 
Q 51.265625 72.90625 61.171875 64.09375 
Q 71.09375 55.28125 71.09375 36.53125 
Q 71.09375 17.671875 61.125 8.828125 
Q 51.171875 0 30.078125 0 
L 9.8125 0 
z
" id="BitstreamVeraSans-Roman-44"/>
      <path d="M 34.28125 27.484375 
Q 23.390625 27.484375 19.1875 25 
Q 14.984375 22.515625 14.984375 16.5 
Q 14.984375 11.71875 18.140625 8.90625 
Q 21.296875 6.109375 26.703125 6.109375 
Q 34.1875 6.109375 38.703125 11.40625 
Q 43.21875 16.703125 43.21875 25.484375 
L 43.21875 27.484375 
z
M 52.203125 31.203125 
L 52.203125 0 
L 43.21875 0 
L 43.21875 8.296875 
Q 40.140625 3.328125 35.546875 0.953125 
Q 30.953125 -1.421875 24.3125 -1.421875 
Q 15.921875 -1.421875 10.953125 3.296875 
Q 6 8.015625 6 15.921875 
Q 6 25.140625 12.171875 29.828125 
Q 18.359375 34.515625 30.609375 34.515625 
L 43.21875 34.515625 
L 43.21875 35.40625 
Q 43.21875 41.609375 39.140625 45 
Q 35.0625 48.390625 27.6875 48.390625 
Q 23 48.390625 18.546875 47.265625 
Q 14.109375 46.140625 10.015625 43.890625 
L 10.015625 52.203125 
Q 14.9375 54.109375 19.578125 55.046875 
Q 24.21875 56 28.609375 56 
Q 40.484375 56 46.34375 49.84375 
Q 52.203125 43.703125 52.203125 31.203125 
" id="BitstreamVeraSans-Roman-61"/>
      <path d="M 18.109375 8.203125 
L 18.109375 -20.796875 
L 9.078125 -20.796875 
L 9.078125 54.6875 
L 18.109375 54.6875 
L 18.109375 46.390625 
Q 20.953125 51.265625 25.265625 53.625 
Q 29.59375 56 35.59375 56 
Q 45.5625 56 51.78125 48.09375 
Q 58.015625 40.1875 58.015625 27.296875 
Q 58.015625 14.40625 51.78125 6.484375 
Q 45.5625 -1.421875 35.59375 -1.421875 
Q 29.59375 -1.421875 25.265625 0.953125 
Q 20.953125 3.328125 18.109375 8.203125 
M 48.6875 27.296875 
Q 48.6875 37.203125 44.609375 42.84375 
Q 40.53125 48.484375 33.40625 48.484375 
Q 26.265625 48.484375 22.1875 42.84375 
Q 18.109375 37.203125 18.109375 27.296875 
Q 18.109375 17.390625 22.1875 11.75 
Q 26.265625 6.109375 33.40625 6.109375 
Q 40.53125 6.109375 44.609375 11.75 
Q 48.6875 17.390625 48.6875 27.296875 
" id="BitstreamVeraSans-Roman-70"/>
      <path d="M 9.421875 54.6875 
L 18.40625 54.6875 
L 18.40625 0 
L 9.421875 0 
z
M 9.421875 75.984375 
L 18.40625 75.984375 
L 18.40625 64.59375 
L 9.421875 64.59375 
z
" id="BitstreamVeraSans-Roman-69"/>
      <path d="M 54.890625 33.015625 
L 54.890625 0 
L 45.90625 0 
L 45.90625 32.71875 
Q 45.90625 40.484375 42.875 44.328125 
Q 39.84375 48.1875 33.796875 48.1875 
Q 26.515625 48.1875 22.3125 43.546875 
Q 18.109375 38.921875 18.109375 30.90625 
L 18.109375 0 
L 9.078125 0 
L 9.078125 54.6875 
L 18.109375 54.6875 
L 18.109375 46.1875 
Q 21.34375 51.125 25.703125 53.5625 
Q 30.078125 56 35.796875 56 
Q 45.21875 56 50.046875 50.171875 
Q 54.890625 44.34375 54.890625 33.015625 
" id="BitstreamVeraSans-Roman-6e"/>
     </defs>
     <g transform="translate(439.00390625 173.8765625)scale(0.1 -0.1)">
      <use xlink:href="#BitstreamVeraSans-Roman-44"/>
      <use x="77.001953125" xlink:href="#BitstreamVeraSans-Roman-61"/>
      <use x="138.28125" xlink:href="#BitstreamVeraSans-Roman-74"/>
      <use x="177.490234375" xlink:href="#BitstreamVeraSans-Roman-61"/>
      <use x="238.76953125" xlink:href="#BitstreamVeraSans-Roman-20"/>
      <use x="270.556640625" xlink:href="#BitstreamVeraSans-Roman-70"/>
      <use x="334.033203125" xlink:href="#BitstreamVeraSans-Roman-6f"/>
      <use x="395.21484375" xlink:href="#BitstreamVeraSans-Roman-69"/>
      <use x="422.998046875" xlink:href="#BitstreamVeraSans-Roman-6e"/>
      <use x="486.376953125" xlink:href="#BitstreamVeraSans-Roman-74"/>
      <use x="525.5859375" xlink:href="#BitstreamVeraSans-Roman-73"/>
     </g>
    </g>
   </g>
   <g id="matplotlib.axis_2">
    <g id="ytick_1">
     <g id="line2d_7">
      <defs>
       <path d="M 0 0 
L 4 0 
" id="m69f1fb283d" style="stroke:#000000;stroke-width:0.5;"/>
      </defs>
      <g>
       <use style="stroke:#000000;stroke-width:0.5;" x="82.575" xlink:href="#m69f1fb283d" y="34.01"/>
      </g>
     </g>
     <g id="line2d_8">
      <defs>
       <path d="M 0 0 
L -4 0 
" id="m2704a33fb5" style="stroke:#000000;stroke-width:0.5;"/>
      </defs>
      <g>
       <use style="stroke:#000000;stroke-width:0.5;" x="853.2" xlink:href="#m2704a33fb5" y="34.01"/>
      </g>
     </g>
     <g id="text_5">
      <!-- Split 1 -->
      <defs>
       <path d="M 53.515625 70.515625 
L 53.515625 60.890625 
Q 47.90625 63.578125 42.921875 64.890625 
Q 37.9375 66.21875 33.296875 66.21875 
Q 25.25 66.21875 20.875 63.09375 
Q 16.5 59.96875 16.5 54.203125 
Q 16.5 49.359375 19.40625 46.890625 
Q 22.3125 44.4375 30.421875 42.921875 
L 36.375 41.703125 
Q 47.40625 39.59375 52.65625 34.296875 
Q 57.90625 29 57.90625 20.125 
Q 57.90625 9.515625 50.796875 4.046875 
Q 43.703125 -1.421875 29.984375 -1.421875 
Q 24.8125 -1.421875 18.96875 -0.25 
Q 13.140625 0.921875 6.890625 3.21875 
L 6.890625 13.375 
Q 12.890625 10.015625 18.65625 8.296875 
Q 24.421875 6.59375 29.984375 6.59375 
Q 38.421875 6.59375 43.015625 9.90625 
Q 47.609375 13.234375 47.609375 19.390625 
Q 47.609375 24.75 44.3125 27.78125 
Q 41.015625 30.8125 33.5 32.328125 
L 27.484375 33.5 
Q 16.453125 35.6875 11.515625 40.375 
Q 6.59375 45.0625 6.59375 53.421875 
Q 6.59375 63.09375 13.40625 68.65625 
Q 20.21875 74.21875 32.171875 74.21875 
Q 37.3125 74.21875 42.625 73.28125 
Q 47.953125 72.359375 53.515625 70.515625 
" id="BitstreamVeraSans-Roman-53"/>
      </defs>
      <g transform="translate(46.8609375 36.769375)scale(0.1 -0.1)">
       <use xlink:href="#BitstreamVeraSans-Roman-53"/>
       <use x="63.4765625" xlink:href="#BitstreamVeraSans-Roman-70"/>
       <use x="126.953125" xlink:href="#BitstreamVeraSans-Roman-6c"/>
       <use x="154.736328125" xlink:href="#BitstreamVeraSans-Roman-69"/>
       <use x="182.51953125" xlink:href="#BitstreamVeraSans-Roman-74"/>
       <use x="221.728515625" xlink:href="#BitstreamVeraSans-Roman-20"/>
       <use x="253.515625" xlink:href="#BitstreamVeraSans-Roman-31"/>
      </g>
     </g>
    </g>
    <g id="ytick_2">
     <g id="line2d_9">
      <g>
       <use style="stroke:#000000;stroke-width:0.5;" x="82.575" xlink:href="#m69f1fb283d" y="64.71"/>
      </g>
     </g>
     <g id="line2d_10">
      <g>
       <use style="stroke:#000000;stroke-width:0.5;" x="853.2" xlink:href="#m2704a33fb5" y="64.71"/>
      </g>
     </g>
     <g id="text_6">
      <!-- Split 2 -->
      <g transform="translate(46.8609375 67.469375)scale(0.1 -0.1)">
       <use xlink:href="#BitstreamVeraSans-Roman-53"/>
       <use x="63.4765625" xlink:href="#BitstreamVeraSans-Roman-70"/>
       <use x="126.953125" xlink:href="#BitstreamVeraSans-Roman-6c"/>
       <use x="154.736328125" xlink:href="#BitstreamVeraSans-Roman-69"/>
       <use x="182.51953125" xlink:href="#BitstreamVeraSans-Roman-74"/>
       <use x="221.728515625" xlink:href="#BitstreamVeraSans-Roman-20"/>
       <use x="253.515625" xlink:href="#BitstreamVeraSans-Roman-32"/>
      </g>
     </g>
    </g>
    <g id="ytick_3">
     <g id="line2d_11">
      <g>
       <use style="stroke:#000000;stroke-width:0.5;" x="82.575" xlink:href="#m69f1fb283d" y="95.41"/>
      </g>
     </g>
     <g id="line2d_12">
      <g>
       <use style="stroke:#000000;stroke-width:0.5;" x="853.2" xlink:href="#m2704a33fb5" y="95.41"/>
      </g>
     </g>
     <g id="text_7">
      <!-- Split 3 -->
      <g transform="translate(46.8609375 98.169375)scale(0.1 -0.1)">
       <use xlink:href="#BitstreamVeraSans-Roman-53"/>
       <use x="63.4765625" xlink:href="#BitstreamVeraSans-Roman-70"/>
       <use x="126.953125" xlink:href="#BitstreamVeraSans-Roman-6c"/>
       <use x="154.736328125" xlink:href="#BitstreamVeraSans-Roman-69"/>
       <use x="182.51953125" xlink:href="#BitstreamVeraSans-Roman-74"/>
       <use x="221.728515625" xlink:href="#BitstreamVeraSans-Roman-20"/>
       <use x="253.515625" xlink:href="#BitstreamVeraSans-Roman-33"/>
      </g>
     </g>
    </g>
    <g id="ytick_4">
     <g id="line2d_13">
      <g>
       <use style="stroke:#000000;stroke-width:0.5;" x="82.575" xlink:href="#m69f1fb283d" y="126.11"/>
      </g>
     </g>
     <g id="line2d_14">
      <g>
       <use style="stroke:#000000;stroke-width:0.5;" x="853.2" xlink:href="#m2704a33fb5" y="126.11"/>
      </g>
     </g>
     <g id="text_8">
      <!-- Class label -->
      <defs>
       <path d="M 56.203125 29.59375 
L 56.203125 25.203125 
L 14.890625 25.203125 
Q 15.484375 15.921875 20.484375 11.0625 
Q 25.484375 6.203125 34.421875 6.203125 
Q 39.59375 6.203125 44.453125 7.46875 
Q 49.3125 8.734375 54.109375 11.28125 
L 54.109375 2.78125 
Q 49.265625 0.734375 44.1875 -0.34375 
Q 39.109375 -1.421875 33.890625 -1.421875 
Q 20.796875 -1.421875 13.15625 6.1875 
Q 5.515625 13.8125 5.515625 26.8125 
Q 5.515625 40.234375 12.765625 48.109375 
Q 20.015625 56 32.328125 56 
Q 43.359375 56 49.78125 48.890625 
Q 56.203125 41.796875 56.203125 29.59375 
M 47.21875 32.234375 
Q 47.125 39.59375 43.09375 43.984375 
Q 39.0625 48.390625 32.421875 48.390625 
Q 24.90625 48.390625 20.390625 44.140625 
Q 15.875 39.890625 15.1875 32.171875 
z
" id="BitstreamVeraSans-Roman-65"/>
       <path d="M 48.6875 27.296875 
Q 48.6875 37.203125 44.609375 42.84375 
Q 40.53125 48.484375 33.40625 48.484375 
Q 26.265625 48.484375 22.1875 42.84375 
Q 18.109375 37.203125 18.109375 27.296875 
Q 18.109375 17.390625 22.1875 11.75 
Q 26.265625 6.109375 33.40625 6.109375 
Q 40.53125 6.109375 44.609375 11.75 
Q 48.6875 17.390625 48.6875 27.296875 
M 18.109375 46.390625 
Q 20.953125 51.265625 25.265625 53.625 
Q 29.59375 56 35.59375 56 
Q 45.5625 56 51.78125 48.09375 
Q 58.015625 40.1875 58.015625 27.296875 
Q 58.015625 14.40625 51.78125 6.484375 
Q 45.5625 -1.421875 35.59375 -1.421875 
Q 29.59375 -1.421875 25.265625 0.953125 
Q 20.953125 3.328125 18.109375 8.203125 
L 18.109375 0 
L 9.078125 0 
L 9.078125 75.984375 
L 18.109375 75.984375 
z
" id="BitstreamVeraSans-Roman-62"/>
       <path d="M 64.40625 67.28125 
L 64.40625 56.890625 
Q 59.421875 61.53125 53.78125 63.8125 
Q 48.140625 66.109375 41.796875 66.109375 
Q 29.296875 66.109375 22.65625 58.46875 
Q 16.015625 50.828125 16.015625 36.375 
Q 16.015625 21.96875 22.65625 14.328125 
Q 29.296875 6.6875 41.796875 6.6875 
Q 48.140625 6.6875 53.78125 8.984375 
Q 59.421875 11.28125 64.40625 15.921875 
L 64.40625 5.609375 
Q 59.234375 2.09375 53.4375 0.328125 
Q 47.65625 -1.421875 41.21875 -1.421875 
Q 24.65625 -1.421875 15.125 8.703125 
Q 5.609375 18.84375 5.609375 36.375 
Q 5.609375 53.953125 15.125 64.078125 
Q 24.65625 74.21875 41.21875 74.21875 
Q 47.75 74.21875 53.53125 72.484375 
Q 59.328125 70.75 64.40625 67.28125 
" id="BitstreamVeraSans-Roman-43"/>
      </defs>
      <g transform="translate(24.903125 128.869375)scale(0.1 -0.1)">
       <use xlink:href="#BitstreamVeraSans-Roman-43"/>
       <use x="69.82421875" xlink:href="#BitstreamVeraSans-Roman-6c"/>
       <use x="97.607421875" xlink:href="#BitstreamVeraSans-Roman-61"/>
       <use x="158.88671875" xlink:href="#BitstreamVeraSans-Roman-73"/>
       <use x="210.986328125" xlink:href="#BitstreamVeraSans-Roman-73"/>
       <use x="263.0859375" xlink:href="#BitstreamVeraSans-Roman-20"/>
       <use x="294.873046875" xlink:href="#BitstreamVeraSans-Roman-6c"/>
       <use x="322.65625" xlink:href="#BitstreamVeraSans-Roman-61"/>
       <use x="383.935546875" xlink:href="#BitstreamVeraSans-Roman-62"/>
       <use x="447.412109375" xlink:href="#BitstreamVeraSans-Roman-65"/>
       <use x="508.935546875" xlink:href="#BitstreamVeraSans-Roman-6c"/>
      </g>
     </g>
    </g>
    <g id="text_9">
     <!-- CV iterations -->
     <defs>
      <path d="M 41.109375 46.296875 
Q 39.59375 47.171875 37.8125 47.578125 
Q 36.03125 48 33.890625 48 
Q 26.265625 48 22.1875 43.046875 
Q 18.109375 38.09375 18.109375 28.8125 
L 18.109375 0 
L 9.078125 0 
L 9.078125 54.6875 
L 18.109375 54.6875 
L 18.109375 46.1875 
Q 20.953125 51.171875 25.484375 53.578125 
Q 30.03125 56 36.53125 56 
Q 37.453125 56 38.578125 55.875 
Q 39.703125 55.765625 41.0625 55.515625 
z
" id="BitstreamVeraSans-Roman-72"/>
      <path d="M 28.609375 0 
L 0.78125 72.90625 
L 11.078125 72.90625 
L 34.1875 11.53125 
L 57.328125 72.90625 
L 67.578125 72.90625 
L 39.796875 0 
z
" id="BitstreamVeraSans-Roman-56"/>
     </defs>
     <g transform="translate(17.8234375 118.428125)rotate(-90.0)scale(0.1 -0.1)">
      <use xlink:href="#BitstreamVeraSans-Roman-43"/>
      <use x="69.82421875" xlink:href="#BitstreamVeraSans-Roman-56"/>
      <use x="138.232421875" xlink:href="#BitstreamVeraSans-Roman-20"/>
      <use x="170.01953125" xlink:href="#BitstreamVeraSans-Roman-69"/>
      <use x="197.802734375" xlink:href="#BitstreamVeraSans-Roman-74"/>
      <use x="237.01171875" xlink:href="#BitstreamVeraSans-Roman-65"/>
      <use x="298.53515625" xlink:href="#BitstreamVeraSans-Roman-72"/>
      <use x="339.6484375" xlink:href="#BitstreamVeraSans-Roman-61"/>
      <use x="400.927734375" xlink:href="#BitstreamVeraSans-Roman-74"/>
      <use x="440.13671875" xlink:href="#BitstreamVeraSans-Roman-69"/>
      <use x="467.919921875" xlink:href="#BitstreamVeraSans-Roman-6f"/>
      <use x="529.1015625" xlink:href="#BitstreamVeraSans-Roman-6e"/>
      <use x="592.48046875" xlink:href="#BitstreamVeraSans-Roman-73"/>
     </g>
    </g>
   </g>
   <g id="text_10">
    <!-- Class 0 -->
    <defs>
     <path d="M 31.78125 66.40625 
Q 24.171875 66.40625 20.328125 58.90625 
Q 16.5 51.421875 16.5 36.375 
Q 16.5 21.390625 20.328125 13.890625 
Q 24.171875 6.390625 31.78125 6.390625 
Q 39.453125 6.390625 43.28125 13.890625 
Q 47.125 21.390625 47.125 36.375 
Q 47.125 51.421875 43.28125 58.90625 
Q 39.453125 66.40625 31.78125 66.40625 
M 31.78125 74.21875 
Q 44.046875 74.21875 50.515625 64.515625 
Q 56.984375 54.828125 56.984375 36.375 
Q 56.984375 17.96875 50.515625 8.265625 
Q 44.046875 -1.421875 31.78125 -1.421875 
Q 19.53125 -1.421875 13.0625 8.265625 
Q 6.59375 17.96875 6.59375 36.375 
Q 6.59375 54.828125 13.0625 64.515625 
Q 19.53125 74.21875 31.78125 74.21875 
" id="BitstreamVeraSans-Roman-30"/>
    </defs>
    <g transform="translate(192.23770178 132.25)scale(0.1 -0.1)">
     <use xlink:href="#BitstreamVeraSans-Roman-43"/>
     <use x="69.82421875" xlink:href="#BitstreamVeraSans-Roman-6c"/>
     <use x="97.607421875" xlink:href="#BitstreamVeraSans-Roman-61"/>
     <use x="158.88671875" xlink:href="#BitstreamVeraSans-Roman-73"/>
     <use x="210.986328125" xlink:href="#BitstreamVeraSans-Roman-73"/>
     <use x="263.0859375" xlink:href="#BitstreamVeraSans-Roman-20"/>
     <use x="294.873046875" xlink:href="#BitstreamVeraSans-Roman-30"/>
    </g>
   </g>
   <g id="text_11">
    <!-- Class 1 -->
    <g transform="translate(447.411542839 132.25)scale(0.1 -0.1)">
     <use xlink:href="#BitstreamVeraSans-Roman-43"/>
     <use x="69.82421875" xlink:href="#BitstreamVeraSans-Roman-6c"/>
     <use x="97.607421875" xlink:href="#BitstreamVeraSans-Roman-61"/>
     <use x="158.88671875" xlink:href="#BitstreamVeraSans-Roman-73"/>
     <use x="210.986328125" xlink:href="#BitstreamVeraSans-Roman-73"/>
     <use x="263.0859375" xlink:href="#BitstreamVeraSans-Roman-20"/>
     <use x="294.873046875" xlink:href="#BitstreamVeraSans-Roman-31"/>
    </g>
   </g>
   <g id="text_12">
    <!-- Class 2 -->
    <g transform="translate(702.585383899 132.25)scale(0.1 -0.1)">
     <use xlink:href="#BitstreamVeraSans-Roman-43"/>
     <use x="69.82421875" xlink:href="#BitstreamVeraSans-Roman-6c"/>
     <use x="97.607421875" xlink:href="#BitstreamVeraSans-Roman-61"/>
     <use x="158.88671875" xlink:href="#BitstreamVeraSans-Roman-73"/>
     <use x="210.986328125" xlink:href="#BitstreamVeraSans-Roman-73"/>
     <use x="263.0859375" xlink:href="#BitstreamVeraSans-Roman-20"/>
     <use x="294.873046875" xlink:href="#BitstreamVeraSans-Roman-32"/>
    </g>
   </g>
   <g id="text_13">
    <!-- Standard cross-validation with sorted class labels -->
    <defs>
     <path d="M 4.203125 54.6875 
L 13.1875 54.6875 
L 24.421875 12.015625 
L 35.59375 54.6875 
L 46.1875 54.6875 
L 57.421875 12.015625 
L 68.609375 54.6875 
L 77.59375 54.6875 
L 63.28125 0 
L 52.6875 0 
L 40.921875 44.828125 
L 29.109375 0 
L 18.5 0 
z
" id="BitstreamVeraSans-Roman-77"/>
     <path d="M 2.984375 54.6875 
L 12.5 54.6875 
L 29.59375 8.796875 
L 46.6875 54.6875 
L 56.203125 54.6875 
L 35.6875 0 
L 23.484375 0 
z
" id="BitstreamVeraSans-Roman-76"/>
     <path d="M 4.890625 31.390625 
L 31.203125 31.390625 
L 31.203125 23.390625 
L 4.890625 23.390625 
z
" id="BitstreamVeraSans-Roman-2d"/>
     <path d="M 54.890625 33.015625 
L 54.890625 0 
L 45.90625 0 
L 45.90625 32.71875 
Q 45.90625 40.484375 42.875 44.328125 
Q 39.84375 48.1875 33.796875 48.1875 
Q 26.515625 48.1875 22.3125 43.546875 
Q 18.109375 38.921875 18.109375 30.90625 
L 18.109375 0 
L 9.078125 0 
L 9.078125 75.984375 
L 18.109375 75.984375 
L 18.109375 46.1875 
Q 21.34375 51.125 25.703125 53.5625 
Q 30.078125 56 35.796875 56 
Q 45.21875 56 50.046875 50.171875 
Q 54.890625 44.34375 54.890625 33.015625 
" id="BitstreamVeraSans-Roman-68"/>
     <path d="M 48.78125 52.59375 
L 48.78125 44.1875 
Q 44.96875 46.296875 41.140625 47.34375 
Q 37.3125 48.390625 33.40625 48.390625 
Q 24.65625 48.390625 19.8125 42.84375 
Q 14.984375 37.3125 14.984375 27.296875 
Q 14.984375 17.28125 19.8125 11.734375 
Q 24.65625 6.203125 33.40625 6.203125 
Q 37.3125 6.203125 41.140625 7.25 
Q 44.96875 8.296875 48.78125 10.40625 
L 48.78125 2.09375 
Q 45.015625 0.34375 40.984375 -0.53125 
Q 36.96875 -1.421875 32.421875 -1.421875 
Q 20.0625 -1.421875 12.78125 6.34375 
Q 5.515625 14.109375 5.515625 27.296875 
Q 5.515625 40.671875 12.859375 48.328125 
Q 20.21875 56 33.015625 56 
Q 37.15625 56 41.109375 55.140625 
Q 45.0625 54.296875 48.78125 52.59375 
" id="BitstreamVeraSans-Roman-63"/>
    </defs>
    <g transform="translate(319.1859375 19.8)scale(0.12 -0.12)">
     <use xlink:href="#BitstreamVeraSans-Roman-53"/>
     <use x="63.4765625" xlink:href="#BitstreamVeraSans-Roman-74"/>
     <use x="102.685546875" xlink:href="#BitstreamVeraSans-Roman-61"/>
     <use x="163.96484375" xlink:href="#BitstreamVeraSans-Roman-6e"/>
     <use x="227.34375" xlink:href="#BitstreamVeraSans-Roman-64"/>
     <use x="290.8203125" xlink:href="#BitstreamVeraSans-Roman-61"/>
     <use x="352.099609375" xlink:href="#BitstreamVeraSans-Roman-72"/>
     <use x="393.197265625" xlink:href="#BitstreamVeraSans-Roman-64"/>
     <use x="456.673828125" xlink:href="#BitstreamVeraSans-Roman-20"/>
     <use x="488.4609375" xlink:href="#BitstreamVeraSans-Roman-63"/>
     <use x="543.44140625" xlink:href="#BitstreamVeraSans-Roman-72"/>
     <use x="584.5234375" xlink:href="#BitstreamVeraSans-Roman-6f"/>
     <use x="645.705078125" xlink:href="#BitstreamVeraSans-Roman-73"/>
     <use x="697.8046875" xlink:href="#BitstreamVeraSans-Roman-73"/>
     <use x="749.904296875" xlink:href="#BitstreamVeraSans-Roman-2d"/>
     <use x="785.95703125" xlink:href="#BitstreamVeraSans-Roman-76"/>
     <use x="845.13671875" xlink:href="#BitstreamVeraSans-Roman-61"/>
     <use x="906.416015625" xlink:href="#BitstreamVeraSans-Roman-6c"/>
     <use x="934.19921875" xlink:href="#BitstreamVeraSans-Roman-69"/>
     <use x="961.982421875" xlink:href="#BitstreamVeraSans-Roman-64"/>
     <use x="1025.458984375" xlink:href="#BitstreamVeraSans-Roman-61"/>
     <use x="1086.73828125" xlink:href="#BitstreamVeraSans-Roman-74"/>
     <use x="1125.947265625" xlink:href="#BitstreamVeraSans-Roman-69"/>
     <use x="1153.73046875" xlink:href="#BitstreamVeraSans-Roman-6f"/>
     <use x="1214.912109375" xlink:href="#BitstreamVeraSans-Roman-6e"/>
     <use x="1278.291015625" xlink:href="#BitstreamVeraSans-Roman-20"/>
     <use x="1310.078125" xlink:href="#BitstreamVeraSans-Roman-77"/>
     <use x="1391.865234375" xlink:href="#BitstreamVeraSans-Roman-69"/>
     <use x="1419.6484375" xlink:href="#BitstreamVeraSans-Roman-74"/>
     <use x="1458.857421875" xlink:href="#BitstreamVeraSans-Roman-68"/>
     <use x="1522.236328125" xlink:href="#BitstreamVeraSans-Roman-20"/>
     <use x="1554.0234375" xlink:href="#BitstreamVeraSans-Roman-73"/>
     <use x="1606.123046875" xlink:href="#BitstreamVeraSans-Roman-6f"/>
     <use x="1667.3046875" xlink:href="#BitstreamVeraSans-Roman-72"/>
     <use x="1708.41796875" xlink:href="#BitstreamVeraSans-Roman-74"/>
     <use x="1747.626953125" xlink:href="#BitstreamVeraSans-Roman-65"/>
     <use x="1809.150390625" xlink:href="#BitstreamVeraSans-Roman-64"/>
     <use x="1872.626953125" xlink:href="#BitstreamVeraSans-Roman-20"/>
     <use x="1904.4140625" xlink:href="#BitstreamVeraSans-Roman-63"/>
     <use x="1959.39453125" xlink:href="#BitstreamVeraSans-Roman-6c"/>
     <use x="1987.177734375" xlink:href="#BitstreamVeraSans-Roman-61"/>
     <use x="2048.45703125" xlink:href="#BitstreamVeraSans-Roman-73"/>
     <use x="2100.556640625" xlink:href="#BitstreamVeraSans-Roman-73"/>
     <use x="2152.65625" xlink:href="#BitstreamVeraSans-Roman-20"/>
     <use x="2184.443359375" xlink:href="#BitstreamVeraSans-Roman-6c"/>
     <use x="2212.2265625" xlink:href="#BitstreamVeraSans-Roman-61"/>
     <use x="2273.505859375" xlink:href="#BitstreamVeraSans-Roman-62"/>
     <use x="2336.982421875" xlink:href="#BitstreamVeraSans-Roman-65"/>
     <use x="2398.505859375" xlink:href="#BitstreamVeraSans-Roman-6c"/>
     <use x="2426.2890625" xlink:href="#BitstreamVeraSans-Roman-73"/>
    </g>
   </g>
  </g>
  <g id="axes_2">
   <g id="patch_14">
    <path clip-path="url(#p1cffbfc507)" d="M 82.575 202.395122 
L 162.52947 202.395122 
L 162.52947 220.365854 
L 82.575 220.365854 
z
" style="fill:url(#hfec4d93242);stroke:#000000;stroke-linejoin:miter;"/>
   </g>
   <g id="patch_15">
    <path clip-path="url(#p1cffbfc507)" d="M 337.748841 202.395122 
L 417.703311 202.395122 
L 417.703311 220.365854 
L 337.748841 220.365854 
z
" style="fill:url(#hfec4d93242);stroke:#000000;stroke-linejoin:miter;"/>
   </g>
   <g id="patch_16">
    <path clip-path="url(#p1cffbfc507)" d="M 592.922682 202.395122 
L 672.877152 202.395122 
L 672.877152 220.365854 
L 592.922682 220.365854 
z
" style="fill:url(#hfec4d93242);stroke:#000000;stroke-linejoin:miter;"/>
   </g>
   <g id="patch_17">
    <path clip-path="url(#p1cffbfc507)" d="M 167.632947 232.346341 
L 247.587417 232.346341 
L 247.587417 250.317073 
L 167.632947 250.317073 
z
" style="fill:url(#hfec4d93242);stroke:#000000;stroke-linejoin:miter;"/>
   </g>
   <g id="patch_18">
    <path clip-path="url(#p1cffbfc507)" d="M 422.806788 232.346341 
L 502.761258 232.346341 
L 502.761258 250.317073 
L 422.806788 250.317073 
z
" style="fill:url(#hfec4d93242);stroke:#000000;stroke-linejoin:miter;"/>
   </g>
   <g id="patch_19">
    <path clip-path="url(#p1cffbfc507)" d="M 677.980629 232.346341 
L 757.935099 232.346341 
L 757.935099 250.317073 
L 677.980629 250.317073 
z
" style="fill:url(#hfec4d93242);stroke:#000000;stroke-linejoin:miter;"/>
   </g>
   <g id="patch_20">
    <path clip-path="url(#p1cffbfc507)" d="M 252.690894 262.297561 
L 332.645364 262.297561 
L 332.645364 280.268293 
L 252.690894 280.268293 
z
" style="fill:url(#hfec4d93242);stroke:#000000;stroke-linejoin:miter;"/>
   </g>
   <g id="patch_21">
    <path clip-path="url(#p1cffbfc507)" d="M 507.864735 262.297561 
L 587.819205 262.297561 
L 587.819205 280.268293 
L 507.864735 280.268293 
z
" style="fill:url(#hfec4d93242);stroke:#000000;stroke-linejoin:miter;"/>
   </g>
   <g id="patch_22">
    <path clip-path="url(#p1cffbfc507)" d="M 763.038576 262.297561 
L 842.993046 262.297561 
L 842.993046 280.268293 
L 763.038576 280.268293 
z
" style="fill:url(#hfec4d93242);stroke:#000000;stroke-linejoin:miter;"/>
   </g>
   <g id="patch_23">
    <path clip-path="url(#p1cffbfc507)" d="M 167.632947 202.395122 
L 332.645364 202.395122 
L 332.645364 220.365854 
L 167.632947 220.365854 
z
" style="fill:url(#h18e4e7b162);stroke:#000000;stroke-linejoin:miter;"/>
   </g>
   <g id="patch_24">
    <path clip-path="url(#p1cffbfc507)" d="M 422.806788 202.395122 
L 587.819205 202.395122 
L 587.819205 220.365854 
L 422.806788 220.365854 
z
" style="fill:url(#h18e4e7b162);stroke:#000000;stroke-linejoin:miter;"/>
   </g>
   <g id="patch_25">
    <path clip-path="url(#p1cffbfc507)" d="M 677.980629 202.395122 
L 842.993046 202.395122 
L 842.993046 220.365854 
L 677.980629 220.365854 
z
" style="fill:url(#h18e4e7b162);stroke:#000000;stroke-linejoin:miter;"/>
   </g>
   <g id="patch_26">
    <path clip-path="url(#p1cffbfc507)" d="M 82.575 232.346341 
L 165.081209 232.346341 
L 165.081209 250.317073 
L 82.575 250.317073 
z
" style="fill:url(#h18e4e7b162);stroke:#000000;stroke-linejoin:miter;"/>
   </g>
   <g id="patch_27">
    <path clip-path="url(#p1cffbfc507)" d="M 252.690894 232.346341 
L 417.703311 232.346341 
L 417.703311 250.317073 
L 252.690894 250.317073 
z
" style="fill:url(#h18e4e7b162);stroke:#000000;stroke-linejoin:miter;"/>
   </g>
   <g id="patch_28">
    <path clip-path="url(#p1cffbfc507)" d="M 507.864735 232.346341 
L 672.877152 232.346341 
L 672.877152 250.317073 
L 507.864735 250.317073 
z
" style="fill:url(#h18e4e7b162);stroke:#000000;stroke-linejoin:miter;"/>
   </g>
   <g id="patch_29">
    <path clip-path="url(#p1cffbfc507)" d="M 763.038576 232.346341 
L 845.544785 232.346341 
L 845.544785 250.317073 
L 763.038576 250.317073 
z
" style="fill:url(#h18e4e7b162);stroke:#000000;stroke-linejoin:miter;"/>
   </g>
   <g id="patch_30">
    <path clip-path="url(#p1cffbfc507)" d="M 82.575 262.297561 
L 247.587417 262.297561 
L 247.587417 280.268293 
L 82.575 280.268293 
z
" style="fill:url(#h18e4e7b162);stroke:#000000;stroke-linejoin:miter;"/>
   </g>
   <g id="patch_31">
    <path clip-path="url(#p1cffbfc507)" d="M 337.748841 262.297561 
L 502.761258 262.297561 
L 502.761258 280.268293 
L 337.748841 280.268293 
z
" style="fill:url(#h18e4e7b162);stroke:#000000;stroke-linejoin:miter;"/>
   </g>
   <g id="patch_32">
    <path clip-path="url(#p1cffbfc507)" d="M 592.922682 262.297561 
L 757.935099 262.297561 
L 757.935099 280.268293 
L 592.922682 280.268293 
z
" style="fill:url(#h18e4e7b162);stroke:#000000;stroke-linejoin:miter;"/>
   </g>
   <g id="patch_33">
    <path clip-path="url(#p1cffbfc507)" d="M 82.575 292.24878 
L 332.645364 292.24878 
L 332.645364 310.219512 
L 82.575 310.219512 
z
" style="fill:#ffffff;stroke:#000000;stroke-linejoin:miter;"/>
   </g>
   <g id="patch_34">
    <path clip-path="url(#p1cffbfc507)" d="M 337.748841 292.24878 
L 587.819205 292.24878 
L 587.819205 310.219512 
L 337.748841 310.219512 
z
" style="fill:#ffffff;stroke:#000000;stroke-linejoin:miter;"/>
   </g>
   <g id="patch_35">
    <path clip-path="url(#p1cffbfc507)" d="M 592.922682 292.24878 
L 842.993046 292.24878 
L 842.993046 310.219512 
L 592.922682 310.219512 
z
" style="fill:#ffffff;stroke:#000000;stroke-linejoin:miter;"/>
   </g>
   <g id="matplotlib.axis_3">
    <g id="xtick_4">
     <g id="line2d_15">
      <g>
       <use style="stroke:#000000;stroke-width:0.5;" x="82.575" xlink:href="#m9a811f569b" y="322.2"/>
      </g>
     </g>
     <g id="line2d_16">
      <g>
       <use style="stroke:#000000;stroke-width:0.5;" x="82.575" xlink:href="#mfb9d59e1f1" y="199.4"/>
      </g>
     </g>
     <g id="text_14">
      <!-- 0 -->
      <g transform="translate(79.39375 333.7984375)scale(0.1 -0.1)">
       <use xlink:href="#BitstreamVeraSans-Roman-30"/>
      </g>
     </g>
    </g>
    <g id="xtick_5">
     <g id="line2d_17">
      <g>
       <use style="stroke:#000000;stroke-width:0.5;" x="184.644536424" xlink:href="#m9a811f569b" y="322.2"/>
      </g>
     </g>
     <g id="line2d_18">
      <g>
       <use style="stroke:#000000;stroke-width:0.5;" x="184.644536424" xlink:href="#mfb9d59e1f1" y="199.4"/>
      </g>
     </g>
     <g id="text_15">
      <!-- 20 -->
      <g transform="translate(178.282036424 333.7984375)scale(0.1 -0.1)">
       <use xlink:href="#BitstreamVeraSans-Roman-32"/>
       <use x="63.623046875" xlink:href="#BitstreamVeraSans-Roman-30"/>
      </g>
     </g>
    </g>
    <g id="xtick_6">
     <g id="line2d_19">
      <g>
       <use style="stroke:#000000;stroke-width:0.5;" x="286.714072848" xlink:href="#m9a811f569b" y="322.2"/>
      </g>
     </g>
     <g id="line2d_20">
      <g>
       <use style="stroke:#000000;stroke-width:0.5;" x="286.714072848" xlink:href="#mfb9d59e1f1" y="199.4"/>
      </g>
     </g>
     <g id="text_16">
      <!-- 40 -->
      <defs>
       <path d="M 37.796875 64.3125 
L 12.890625 25.390625 
L 37.796875 25.390625 
z
M 35.203125 72.90625 
L 47.609375 72.90625 
L 47.609375 25.390625 
L 58.015625 25.390625 
L 58.015625 17.1875 
L 47.609375 17.1875 
L 47.609375 0 
L 37.796875 0 
L 37.796875 17.1875 
L 4.890625 17.1875 
L 4.890625 26.703125 
z
" id="BitstreamVeraSans-Roman-34"/>
      </defs>
      <g transform="translate(280.351572848 333.7984375)scale(0.1 -0.1)">
       <use xlink:href="#BitstreamVeraSans-Roman-34"/>
       <use x="63.623046875" xlink:href="#BitstreamVeraSans-Roman-30"/>
      </g>
     </g>
    </g>
    <g id="xtick_7">
     <g id="line2d_21">
      <g>
       <use style="stroke:#000000;stroke-width:0.5;" x="388.783609272" xlink:href="#m9a811f569b" y="322.2"/>
      </g>
     </g>
     <g id="line2d_22">
      <g>
       <use style="stroke:#000000;stroke-width:0.5;" x="388.783609272" xlink:href="#mfb9d59e1f1" y="199.4"/>
      </g>
     </g>
     <g id="text_17">
      <!-- 60 -->
      <defs>
       <path d="M 33.015625 40.375 
Q 26.375 40.375 22.484375 35.828125 
Q 18.609375 31.296875 18.609375 23.390625 
Q 18.609375 15.53125 22.484375 10.953125 
Q 26.375 6.390625 33.015625 6.390625 
Q 39.65625 6.390625 43.53125 10.953125 
Q 47.40625 15.53125 47.40625 23.390625 
Q 47.40625 31.296875 43.53125 35.828125 
Q 39.65625 40.375 33.015625 40.375 
M 52.59375 71.296875 
L 52.59375 62.3125 
Q 48.875 64.0625 45.09375 64.984375 
Q 41.3125 65.921875 37.59375 65.921875 
Q 27.828125 65.921875 22.671875 59.328125 
Q 17.53125 52.734375 16.796875 39.40625 
Q 19.671875 43.65625 24.015625 45.921875 
Q 28.375 48.1875 33.59375 48.1875 
Q 44.578125 48.1875 50.953125 41.515625 
Q 57.328125 34.859375 57.328125 23.390625 
Q 57.328125 12.15625 50.6875 5.359375 
Q 44.046875 -1.421875 33.015625 -1.421875 
Q 20.359375 -1.421875 13.671875 8.265625 
Q 6.984375 17.96875 6.984375 36.375 
Q 6.984375 53.65625 15.1875 63.9375 
Q 23.390625 74.21875 37.203125 74.21875 
Q 40.921875 74.21875 44.703125 73.484375 
Q 48.484375 72.75 52.59375 71.296875 
" id="BitstreamVeraSans-Roman-36"/>
      </defs>
      <g transform="translate(382.421109272 333.7984375)scale(0.1 -0.1)">
       <use xlink:href="#BitstreamVeraSans-Roman-36"/>
       <use x="63.623046875" xlink:href="#BitstreamVeraSans-Roman-30"/>
      </g>
     </g>
    </g>
    <g id="xtick_8">
     <g id="line2d_23">
      <g>
       <use style="stroke:#000000;stroke-width:0.5;" x="490.853145695" xlink:href="#m9a811f569b" y="322.2"/>
      </g>
     </g>
     <g id="line2d_24">
      <g>
       <use style="stroke:#000000;stroke-width:0.5;" x="490.853145695" xlink:href="#mfb9d59e1f1" y="199.4"/>
      </g>
     </g>
     <g id="text_18">
      <!-- 80 -->
      <defs>
       <path d="M 31.78125 34.625 
Q 24.75 34.625 20.71875 30.859375 
Q 16.703125 27.09375 16.703125 20.515625 
Q 16.703125 13.921875 20.71875 10.15625 
Q 24.75 6.390625 31.78125 6.390625 
Q 38.8125 6.390625 42.859375 10.171875 
Q 46.921875 13.96875 46.921875 20.515625 
Q 46.921875 27.09375 42.890625 30.859375 
Q 38.875 34.625 31.78125 34.625 
M 21.921875 38.8125 
Q 15.578125 40.375 12.03125 44.71875 
Q 8.5 49.078125 8.5 55.328125 
Q 8.5 64.0625 14.71875 69.140625 
Q 20.953125 74.21875 31.78125 74.21875 
Q 42.671875 74.21875 48.875 69.140625 
Q 55.078125 64.0625 55.078125 55.328125 
Q 55.078125 49.078125 51.53125 44.71875 
Q 48 40.375 41.703125 38.8125 
Q 48.828125 37.15625 52.796875 32.3125 
Q 56.78125 27.484375 56.78125 20.515625 
Q 56.78125 9.90625 50.3125 4.234375 
Q 43.84375 -1.421875 31.78125 -1.421875 
Q 19.734375 -1.421875 13.25 4.234375 
Q 6.78125 9.90625 6.78125 20.515625 
Q 6.78125 27.484375 10.78125 32.3125 
Q 14.796875 37.15625 21.921875 38.8125 
M 18.3125 54.390625 
Q 18.3125 48.734375 21.84375 45.5625 
Q 25.390625 42.390625 31.78125 42.390625 
Q 38.140625 42.390625 41.71875 45.5625 
Q 45.3125 48.734375 45.3125 54.390625 
Q 45.3125 60.0625 41.71875 63.234375 
Q 38.140625 66.40625 31.78125 66.40625 
Q 25.390625 66.40625 21.84375 63.234375 
Q 18.3125 60.0625 18.3125 54.390625 
" id="BitstreamVeraSans-Roman-38"/>
      </defs>
      <g transform="translate(484.490645695 333.7984375)scale(0.1 -0.1)">
       <use xlink:href="#BitstreamVeraSans-Roman-38"/>
       <use x="63.623046875" xlink:href="#BitstreamVeraSans-Roman-30"/>
      </g>
     </g>
    </g>
    <g id="xtick_9">
     <g id="line2d_25">
      <g>
       <use style="stroke:#000000;stroke-width:0.5;" x="592.922682119" xlink:href="#m9a811f569b" y="322.2"/>
      </g>
     </g>
     <g id="line2d_26">
      <g>
       <use style="stroke:#000000;stroke-width:0.5;" x="592.922682119" xlink:href="#mfb9d59e1f1" y="199.4"/>
      </g>
     </g>
     <g id="text_19">
      <!-- 100 -->
      <g transform="translate(583.378932119 333.7984375)scale(0.1 -0.1)">
       <use xlink:href="#BitstreamVeraSans-Roman-31"/>
       <use x="63.623046875" xlink:href="#BitstreamVeraSans-Roman-30"/>
       <use x="127.24609375" xlink:href="#BitstreamVeraSans-Roman-30"/>
      </g>
     </g>
    </g>
    <g id="xtick_10">
     <g id="line2d_27">
      <g>
       <use style="stroke:#000000;stroke-width:0.5;" x="694.992218543" xlink:href="#m9a811f569b" y="322.2"/>
      </g>
     </g>
     <g id="line2d_28">
      <g>
       <use style="stroke:#000000;stroke-width:0.5;" x="694.992218543" xlink:href="#mfb9d59e1f1" y="199.4"/>
      </g>
     </g>
     <g id="text_20">
      <!-- 120 -->
      <g transform="translate(685.448468543 333.7984375)scale(0.1 -0.1)">
       <use xlink:href="#BitstreamVeraSans-Roman-31"/>
       <use x="63.623046875" xlink:href="#BitstreamVeraSans-Roman-32"/>
       <use x="127.24609375" xlink:href="#BitstreamVeraSans-Roman-30"/>
      </g>
     </g>
    </g>
    <g id="xtick_11">
     <g id="line2d_29">
      <g>
       <use style="stroke:#000000;stroke-width:0.5;" x="797.061754967" xlink:href="#m9a811f569b" y="322.2"/>
      </g>
     </g>
     <g id="line2d_30">
      <g>
       <use style="stroke:#000000;stroke-width:0.5;" x="797.061754967" xlink:href="#mfb9d59e1f1" y="199.4"/>
      </g>
     </g>
     <g id="text_21">
      <!-- 140 -->
      <g transform="translate(787.518004967 333.7984375)scale(0.1 -0.1)">
       <use xlink:href="#BitstreamVeraSans-Roman-31"/>
       <use x="63.623046875" xlink:href="#BitstreamVeraSans-Roman-34"/>
       <use x="127.24609375" xlink:href="#BitstreamVeraSans-Roman-30"/>
      </g>
     </g>
    </g>
    <g id="text_22">
     <!-- Data points -->
     <g transform="translate(439.00390625 348.4765625)scale(0.1 -0.1)">
      <use xlink:href="#BitstreamVeraSans-Roman-44"/>
      <use x="77.001953125" xlink:href="#BitstreamVeraSans-Roman-61"/>
      <use x="138.28125" xlink:href="#BitstreamVeraSans-Roman-74"/>
      <use x="177.490234375" xlink:href="#BitstreamVeraSans-Roman-61"/>
      <use x="238.76953125" xlink:href="#BitstreamVeraSans-Roman-20"/>
      <use x="270.556640625" xlink:href="#BitstreamVeraSans-Roman-70"/>
      <use x="334.033203125" xlink:href="#BitstreamVeraSans-Roman-6f"/>
      <use x="395.21484375" xlink:href="#BitstreamVeraSans-Roman-69"/>
      <use x="422.998046875" xlink:href="#BitstreamVeraSans-Roman-6e"/>
      <use x="486.376953125" xlink:href="#BitstreamVeraSans-Roman-74"/>
      <use x="525.5859375" xlink:href="#BitstreamVeraSans-Roman-73"/>
     </g>
    </g>
   </g>
   <g id="matplotlib.axis_4">
    <g id="ytick_5">
     <g id="line2d_31">
      <g>
       <use style="stroke:#000000;stroke-width:0.5;" x="82.575" xlink:href="#m69f1fb283d" y="211.380487805"/>
      </g>
     </g>
     <g id="line2d_32">
      <g>
       <use style="stroke:#000000;stroke-width:0.5;" x="853.2" xlink:href="#m2704a33fb5" y="211.380487805"/>
      </g>
     </g>
     <g id="text_23">
      <!-- Split 1 -->
      <g transform="translate(46.8609375 214.139862805)scale(0.1 -0.1)">
       <use xlink:href="#BitstreamVeraSans-Roman-53"/>
       <use x="63.4765625" xlink:href="#BitstreamVeraSans-Roman-70"/>
       <use x="126.953125" xlink:href="#BitstreamVeraSans-Roman-6c"/>
       <use x="154.736328125" xlink:href="#BitstreamVeraSans-Roman-69"/>
       <use x="182.51953125" xlink:href="#BitstreamVeraSans-Roman-74"/>
       <use x="221.728515625" xlink:href="#BitstreamVeraSans-Roman-20"/>
       <use x="253.515625" xlink:href="#BitstreamVeraSans-Roman-31"/>
      </g>
     </g>
    </g>
    <g id="ytick_6">
     <g id="line2d_33">
      <g>
       <use style="stroke:#000000;stroke-width:0.5;" x="82.575" xlink:href="#m69f1fb283d" y="241.331707317"/>
      </g>
     </g>
     <g id="line2d_34">
      <g>
       <use style="stroke:#000000;stroke-width:0.5;" x="853.2" xlink:href="#m2704a33fb5" y="241.331707317"/>
      </g>
     </g>
     <g id="text_24">
      <!-- Split 2 -->
      <g transform="translate(46.8609375 244.091082317)scale(0.1 -0.1)">
       <use xlink:href="#BitstreamVeraSans-Roman-53"/>
       <use x="63.4765625" xlink:href="#BitstreamVeraSans-Roman-70"/>
       <use x="126.953125" xlink:href="#BitstreamVeraSans-Roman-6c"/>
       <use x="154.736328125" xlink:href="#BitstreamVeraSans-Roman-69"/>
       <use x="182.51953125" xlink:href="#BitstreamVeraSans-Roman-74"/>
       <use x="221.728515625" xlink:href="#BitstreamVeraSans-Roman-20"/>
       <use x="253.515625" xlink:href="#BitstreamVeraSans-Roman-32"/>
      </g>
     </g>
    </g>
    <g id="ytick_7">
     <g id="line2d_35">
      <g>
       <use style="stroke:#000000;stroke-width:0.5;" x="82.575" xlink:href="#m69f1fb283d" y="271.282926829"/>
      </g>
     </g>
     <g id="line2d_36">
      <g>
       <use style="stroke:#000000;stroke-width:0.5;" x="853.2" xlink:href="#m2704a33fb5" y="271.282926829"/>
      </g>
     </g>
     <g id="text_25">
      <!-- Split 3 -->
      <g transform="translate(46.8609375 274.042301829)scale(0.1 -0.1)">
       <use xlink:href="#BitstreamVeraSans-Roman-53"/>
       <use x="63.4765625" xlink:href="#BitstreamVeraSans-Roman-70"/>
       <use x="126.953125" xlink:href="#BitstreamVeraSans-Roman-6c"/>
       <use x="154.736328125" xlink:href="#BitstreamVeraSans-Roman-69"/>
       <use x="182.51953125" xlink:href="#BitstreamVeraSans-Roman-74"/>
       <use x="221.728515625" xlink:href="#BitstreamVeraSans-Roman-20"/>
       <use x="253.515625" xlink:href="#BitstreamVeraSans-Roman-33"/>
      </g>
     </g>
    </g>
    <g id="ytick_8">
     <g id="line2d_37">
      <g>
       <use style="stroke:#000000;stroke-width:0.5;" x="82.575" xlink:href="#m69f1fb283d" y="301.234146341"/>
      </g>
     </g>
     <g id="line2d_38">
      <g>
       <use style="stroke:#000000;stroke-width:0.5;" x="853.2" xlink:href="#m2704a33fb5" y="301.234146341"/>
      </g>
     </g>
     <g id="text_26">
      <!-- Class label -->
      <g transform="translate(24.903125 303.993521341)scale(0.1 -0.1)">
       <use xlink:href="#BitstreamVeraSans-Roman-43"/>
       <use x="69.82421875" xlink:href="#BitstreamVeraSans-Roman-6c"/>
       <use x="97.607421875" xlink:href="#BitstreamVeraSans-Roman-61"/>
       <use x="158.88671875" xlink:href="#BitstreamVeraSans-Roman-73"/>
       <use x="210.986328125" xlink:href="#BitstreamVeraSans-Roman-73"/>
       <use x="263.0859375" xlink:href="#BitstreamVeraSans-Roman-20"/>
       <use x="294.873046875" xlink:href="#BitstreamVeraSans-Roman-6c"/>
       <use x="322.65625" xlink:href="#BitstreamVeraSans-Roman-61"/>
       <use x="383.935546875" xlink:href="#BitstreamVeraSans-Roman-62"/>
       <use x="447.412109375" xlink:href="#BitstreamVeraSans-Roman-65"/>
       <use x="508.935546875" xlink:href="#BitstreamVeraSans-Roman-6c"/>
      </g>
     </g>
    </g>
    <g id="text_27">
     <!-- CV iterations -->
     <g transform="translate(17.8234375 293.028125)rotate(-90.0)scale(0.1 -0.1)">
      <use xlink:href="#BitstreamVeraSans-Roman-43"/>
      <use x="69.82421875" xlink:href="#BitstreamVeraSans-Roman-56"/>
      <use x="138.232421875" xlink:href="#BitstreamVeraSans-Roman-20"/>
      <use x="170.01953125" xlink:href="#BitstreamVeraSans-Roman-69"/>
      <use x="197.802734375" xlink:href="#BitstreamVeraSans-Roman-74"/>
      <use x="237.01171875" xlink:href="#BitstreamVeraSans-Roman-65"/>
      <use x="298.53515625" xlink:href="#BitstreamVeraSans-Roman-72"/>
      <use x="339.6484375" xlink:href="#BitstreamVeraSans-Roman-61"/>
      <use x="400.927734375" xlink:href="#BitstreamVeraSans-Roman-74"/>
      <use x="440.13671875" xlink:href="#BitstreamVeraSans-Roman-69"/>
      <use x="467.919921875" xlink:href="#BitstreamVeraSans-Roman-6f"/>
      <use x="529.1015625" xlink:href="#BitstreamVeraSans-Roman-6e"/>
      <use x="592.48046875" xlink:href="#BitstreamVeraSans-Roman-73"/>
     </g>
    </g>
   </g>
   <g id="text_28">
    <!-- Class 0 -->
    <g transform="translate(192.23770178 307.224390244)scale(0.1 -0.1)">
     <use xlink:href="#BitstreamVeraSans-Roman-43"/>
     <use x="69.82421875" xlink:href="#BitstreamVeraSans-Roman-6c"/>
     <use x="97.607421875" xlink:href="#BitstreamVeraSans-Roman-61"/>
     <use x="158.88671875" xlink:href="#BitstreamVeraSans-Roman-73"/>
     <use x="210.986328125" xlink:href="#BitstreamVeraSans-Roman-73"/>
     <use x="263.0859375" xlink:href="#BitstreamVeraSans-Roman-20"/>
     <use x="294.873046875" xlink:href="#BitstreamVeraSans-Roman-30"/>
    </g>
   </g>
   <g id="text_29">
    <!-- Class 1 -->
    <g transform="translate(447.411542839 307.224390244)scale(0.1 -0.1)">
     <use xlink:href="#BitstreamVeraSans-Roman-43"/>
     <use x="69.82421875" xlink:href="#BitstreamVeraSans-Roman-6c"/>
     <use x="97.607421875" xlink:href="#BitstreamVeraSans-Roman-61"/>
     <use x="158.88671875" xlink:href="#BitstreamVeraSans-Roman-73"/>
     <use x="210.986328125" xlink:href="#BitstreamVeraSans-Roman-73"/>
     <use x="263.0859375" xlink:href="#BitstreamVeraSans-Roman-20"/>
     <use x="294.873046875" xlink:href="#BitstreamVeraSans-Roman-31"/>
    </g>
   </g>
   <g id="text_30">
    <!-- Class 2 -->
    <g transform="translate(702.585383899 307.224390244)scale(0.1 -0.1)">
     <use xlink:href="#BitstreamVeraSans-Roman-43"/>
     <use x="69.82421875" xlink:href="#BitstreamVeraSans-Roman-6c"/>
     <use x="97.607421875" xlink:href="#BitstreamVeraSans-Roman-61"/>
     <use x="158.88671875" xlink:href="#BitstreamVeraSans-Roman-73"/>
     <use x="210.986328125" xlink:href="#BitstreamVeraSans-Roman-73"/>
     <use x="263.0859375" xlink:href="#BitstreamVeraSans-Roman-20"/>
     <use x="294.873046875" xlink:href="#BitstreamVeraSans-Roman-32"/>
    </g>
   </g>
   <g id="text_31">
    <!-- Stratified Cross-validation -->
    <defs>
     <path d="M 37.109375 75.984375 
L 37.109375 68.5 
L 28.515625 68.5 
Q 23.6875 68.5 21.796875 66.546875 
Q 19.921875 64.59375 19.921875 59.515625 
L 19.921875 54.6875 
L 34.71875 54.6875 
L 34.71875 47.703125 
L 19.921875 47.703125 
L 19.921875 0 
L 10.890625 0 
L 10.890625 47.703125 
L 2.296875 47.703125 
L 2.296875 54.6875 
L 10.890625 54.6875 
L 10.890625 58.5 
Q 10.890625 67.625 15.140625 71.796875 
Q 19.390625 75.984375 28.609375 75.984375 
z
" id="BitstreamVeraSans-Roman-66"/>
    </defs>
    <g transform="translate(390.0965625 194.4)scale(0.12 -0.12)">
     <use xlink:href="#BitstreamVeraSans-Roman-53"/>
     <use x="63.4765625" xlink:href="#BitstreamVeraSans-Roman-74"/>
     <use x="102.685546875" xlink:href="#BitstreamVeraSans-Roman-72"/>
     <use x="143.798828125" xlink:href="#BitstreamVeraSans-Roman-61"/>
     <use x="205.078125" xlink:href="#BitstreamVeraSans-Roman-74"/>
     <use x="244.287109375" xlink:href="#BitstreamVeraSans-Roman-69"/>
     <use x="272.0703125" xlink:href="#BitstreamVeraSans-Roman-66"/>
     <use x="307.275390625" xlink:href="#BitstreamVeraSans-Roman-69"/>
     <use x="335.05859375" xlink:href="#BitstreamVeraSans-Roman-65"/>
     <use x="396.58203125" xlink:href="#BitstreamVeraSans-Roman-64"/>
     <use x="460.05859375" xlink:href="#BitstreamVeraSans-Roman-20"/>
     <use x="491.845703125" xlink:href="#BitstreamVeraSans-Roman-43"/>
     <use x="561.669921875" xlink:href="#BitstreamVeraSans-Roman-72"/>
     <use x="602.751953125" xlink:href="#BitstreamVeraSans-Roman-6f"/>
     <use x="663.93359375" xlink:href="#BitstreamVeraSans-Roman-73"/>
     <use x="716.033203125" xlink:href="#BitstreamVeraSans-Roman-73"/>
     <use x="768.1328125" xlink:href="#BitstreamVeraSans-Roman-2d"/>
     <use x="804.185546875" xlink:href="#BitstreamVeraSans-Roman-76"/>
     <use x="863.365234375" xlink:href="#BitstreamVeraSans-Roman-61"/>
     <use x="924.64453125" xlink:href="#BitstreamVeraSans-Roman-6c"/>
     <use x="952.427734375" xlink:href="#BitstreamVeraSans-Roman-69"/>
     <use x="980.2109375" xlink:href="#BitstreamVeraSans-Roman-64"/>
     <use x="1043.6875" xlink:href="#BitstreamVeraSans-Roman-61"/>
     <use x="1104.966796875" xlink:href="#BitstreamVeraSans-Roman-74"/>
     <use x="1144.17578125" xlink:href="#BitstreamVeraSans-Roman-69"/>
     <use x="1171.958984375" xlink:href="#BitstreamVeraSans-Roman-6f"/>
     <use x="1233.140625" xlink:href="#BitstreamVeraSans-Roman-6e"/>
    </g>
   </g>
  </g>
 </g>
 <defs>
  <clipPath id="p1d6fbd1bad">
   <rect height="122.8" width="770.625" x="82.575" y="24.8"/>
  </clipPath>
  <clipPath id="p1cffbfc507">
   <rect height="122.8" width="770.625" x="82.575" y="199.4"/>
  </clipPath>
 </defs>
 <defs>
  <pattern height="72" id="h18e4e7b162" patternUnits="userSpaceOnUse" width="72" x="0" y="0">
   <rect fill="#ffffff" height="73" width="73" x="0" y="0"/>
   <path d="M -36 36 
L 36 -36 
M -30 42 
L 42 -30 
M -24 48 
L 48 -24 
M -18 54 
L 54 -18 
M -12 60 
L 60 -12 
M -6 66 
L 66 -6 
M 0 72 
L 72 0 
M 6 78 
L 78 6 
M 12 84 
L 84 12 
M 18 90 
L 90 18 
M 24 96 
L 96 24 
M 30 102 
L 102 30 
M 36 108 
L 108 36 
" style="fill:#000000;stroke:#000000;stroke-linecap:butt;stroke-linejoin:miter;stroke-width:1.0;"/>
  </pattern>
  <pattern height="72" id="hfec4d93242" patternUnits="userSpaceOnUse" width="72" x="0" y="0">
   <rect fill="#808080" height="73" width="73" x="0" y="0"/>
   <path d="M -36 36 
L 36 -36 
M -30 42 
L 42 -30 
M -24 48 
L 48 -24 
M -18 54 
L 54 -18 
M -12 60 
L 60 -12 
M -6 66 
L 66 -6 
M 0 72 
L 72 0 
M 6 78 
L 78 6 
M 12 84 
L 84 12 
M 18 90 
L 90 18 
M 24 96 
L 96 24 
M 30 102 
L 102 30 
M 36 108 
L 108 36 
" style="fill:#000000;stroke:#000000;stroke-linecap:butt;stroke-linejoin:miter;stroke-width:1.0;"/>
  </pattern>
 </defs>
</svg>
